<svg width="18" height="18" viewBox="0 0 18 18" fill="none" xmlns="http://www.w3.org/2000/svg">
<path fill-rule="evenodd" clip-rule="evenodd" d="M9 0C4.02991 0 0 4.02991 0 9C0 13.9701 4.02991 18 9 18C13.9701 18 18 13.9701 18 9C18 4.02991 13.9701 0 9 0ZM8.99958 16.4733C4.87324 16.4733 1.52637 13.1264 1.52637 9.00005C1.52637 4.87371 4.87324 1.52684 8.99958 1.52684C13.1259 1.52684 16.4728 4.87371 16.4728 9.00005C16.4728 13.1264 13.1259 16.4733 8.99958 16.4733ZM9.64515 9.47203L12.5099 11.5432C12.5822 11.5935 12.5983 11.6939 12.546 11.7682L11.9715 12.5517C11.9193 12.622 11.8188 12.6381 11.7465 12.5859L8.42372 10.1631C8.38153 10.133 8.35742 10.0848 8.35742 10.0325V4.49993C8.35742 4.41154 8.42974 4.33922 8.51814 4.33922H9.48443C9.57282 4.33922 9.64515 4.41154 9.64515 4.49993V9.47203Z" fill="white"/>
</svg>
