<svg width="52" height="64" viewBox="0 0 52 64" fill="none" xmlns="http://www.w3.org/2000/svg">
<g opacity="0.8">
<path d="M22.798 38.826L22.764 32.332H24.974C26.2433 32.332 27.2633 31.992 28.034 31.312C28.8047 30.6093 29.19 29.6687 29.19 28.49C29.19 27.3113 28.8047 26.3707 28.034 25.668C27.2633 24.9653 26.232 24.614 24.94 24.614H20.282V21.18H24.838C26.4473 21.18 27.8527 21.486 29.054 22.098C30.2553 22.6873 31.1847 23.526 31.842 24.614C32.522 25.702 32.862 26.994 32.862 28.49C32.862 29.8273 32.5787 31.0173 32.012 32.06C31.4453 33.1027 30.6633 33.93 29.666 34.542C28.6913 35.1313 27.5467 35.4487 26.232 35.494V38.826H22.798ZM23.988 46.17C23.3307 46.17 22.798 45.9773 22.39 45.592C21.982 45.184 21.778 44.6627 21.778 44.028C21.778 43.3933 21.982 42.8833 22.39 42.498C22.798 42.09 23.3307 41.886 23.988 41.886H25.008C25.688 41.886 26.2207 42.09 26.606 42.498C26.9913 42.8833 27.184 43.382 27.184 43.994C27.184 44.6287 26.98 45.15 26.572 45.558C26.164 45.966 25.6313 46.17 24.974 46.17H23.988Z" fill="#FF0083"/>
<path fill-rule="evenodd" clip-rule="evenodd" d="M40.375 1.25419L50.337 11.7627H40.375V1.25419Z" fill="#FF0083"/>
<path fill-rule="evenodd" clip-rule="evenodd" d="M39.66 0.5L51 12.462V63.5H1V0.5H39.66Z" stroke="#FF0083"/>
<path d="M22.798 38.826L22.764 32.332H24.974C26.2433 32.332 27.2633 31.992 28.034 31.312C28.8047 30.6093 29.19 29.6687 29.19 28.49C29.19 27.3113 28.8047 26.3707 28.034 25.668C27.2633 24.9653 26.232 24.614 24.94 24.614H20.282V21.18H24.838C26.4473 21.18 27.8527 21.486 29.054 22.098C30.2553 22.6873 31.1847 23.526 31.842 24.614C32.522 25.702 32.862 26.994 32.862 28.49C32.862 29.8273 32.5787 31.0173 32.012 32.06C31.4453 33.1027 30.6633 33.93 29.666 34.542C28.6913 35.1313 27.5467 35.4487 26.232 35.494V38.826H22.798ZM23.988 46.17C23.3307 46.17 22.798 45.9773 22.39 45.592C21.982 45.184 21.778 44.6627 21.778 44.028C21.778 43.3933 21.982 42.8833 22.39 42.498C22.798 42.09 23.3307 41.886 23.988 41.886H25.008C25.688 41.886 26.2207 42.09 26.606 42.498C26.9913 42.8833 27.184 43.382 27.184 43.994C27.184 44.6287 26.98 45.15 26.572 45.558C26.164 45.966 25.6313 46.17 24.974 46.17H23.988Z" stroke="#FF0083"/>
<path fill-rule="evenodd" clip-rule="evenodd" d="M40.375 1.25419L50.337 11.7627H40.375V1.25419Z" stroke="#FF0083"/>
</g>
</svg>
