<svg width="18" height="18" viewBox="0 0 18 18" fill="none" xmlns="http://www.w3.org/2000/svg">
<circle cx="9" cy="9" r="9" fill="#00B3FF"/>
<path fill-rule="evenodd" clip-rule="evenodd" d="M9 4.625C6.58398 4.625 4.625 6.58398 4.625 9C4.625 11.416 6.58398 13.375 9 13.375C11.416 13.375 13.375 11.416 13.375 9C13.375 6.58398 11.416 4.625 9 4.625ZM9 12.6328C6.99414 12.6328 5.36719 11.0059 5.36719 9C5.36719 6.99414 6.99414 5.36719 9 5.36719C11.0059 5.36719 12.6328 6.99414 12.6328 9C12.6328 11.0059 11.0059 12.6328 9 12.6328ZM9.31348 9.22949L10.7061 10.2363C10.7412 10.2607 10.749 10.3096 10.7236 10.3457L10.4443 10.7266C10.4189 10.7607 10.3701 10.7686 10.335 10.7432L8.71973 9.56543C8.69922 9.55078 8.6875 9.52734 8.6875 9.50195V6.8125C8.6875 6.76953 8.72266 6.73438 8.76562 6.73438H9.23535C9.27832 6.73438 9.31348 6.76953 9.31348 6.8125V9.22949Z" fill="white"/>
</svg>
