<svg width="18" height="18" viewBox="0 0 18 18" fill="none" xmlns="http://www.w3.org/2000/svg">
<path fill-rule="evenodd" clip-rule="evenodd" d="M9 0C4.02991 0 0 4.02991 0 9C0 13.9701 4.02991 18 9 18C13.9701 18 18 13.9701 18 9C18 4.02991 13.9701 0 9 0ZM12.8875 6.06094L8.65673 11.927C8.40159 12.2826 7.87325 12.2826 7.61811 11.927L5.11298 8.45558C5.03664 8.34911 5.11298 8.20045 5.24356 8.20045H6.18575C6.39066 8.20045 6.58552 8.29888 6.70606 8.46763L8.13641 10.4525L11.2945 6.07299C11.415 5.90625 11.6078 5.8058 11.8148 5.8058H12.757C12.8875 5.8058 12.9639 5.95446 12.8875 6.06094Z" fill="#42FF00"/>
</svg>
