<svg width="26" height="26" viewBox="0 0 26 26" fill="none" xmlns="http://www.w3.org/2000/svg">
<path fill-rule="evenodd" clip-rule="evenodd" d="M9.71588 4.1601H16.2843C16.7682 4.1601 17.1601 3.81088 17.1601 3.3801C17.1601 2.94932 16.7682 2.6001 16.2843 2.6001H9.71588C9.232 2.6001 8.84009 2.94932 8.84009 3.3801C8.84009 3.81088 9.232 4.1601 9.71588 4.1601ZM22.5511 5.2001H3.44852C2.98052 5.2001 2.6001 5.54932 2.6001 5.9801C2.6001 6.41088 2.98052 6.7601 3.44907 6.7601H22.5517C23.0197 6.7601 23.4001 6.41088 23.4001 5.9801C23.4001 5.54932 23.0197 5.2001 22.5511 5.2001ZM16.1201 19.5253V10.1149C16.1201 9.84508 15.9712 9.59603 15.7304 9.46137C15.4879 9.32651 15.1929 9.32651 14.9504 9.46137C14.709 9.59602 14.5601 9.84508 14.5601 10.1149V19.5253C14.5601 19.9424 14.9093 20.2801 15.3401 20.2801C15.7709 20.2801 16.1201 19.9424 16.1201 19.5253ZM19.655 8.9441C19.73 8.58448 20.0726 8.32393 20.4733 8.32174L20.4733 8.32559C20.874 8.32723 21.2199 8.58395 21.3036 8.94192H21.3201V22.4696C21.3184 22.9797 20.8679 23.3946 20.3091 23.4001H6.19682C5.92916 23.3974 5.67354 23.2977 5.48689 23.1226C5.29969 22.948 5.19678 22.7121 5.20007 22.4679V8.9441H5.21594C5.2882 8.58338 5.63194 8.3212 6.03371 8.3212C6.43493 8.3212 6.77868 8.58338 6.85093 8.9441H6.86571V21.2238C6.8679 21.5675 7.17333 21.8456 7.54992 21.8467H18.9735C19.152 21.8445 19.3227 21.7782 19.447 21.6616C19.5723 21.5445 19.6413 21.3874 19.6386 21.2238V8.9441H19.655ZM11.4401 10.127V19.5099C11.4395 19.9341 11.0876 20.2779 10.653 20.2801C10.2216 20.2752 9.87625 19.9314 9.88009 19.5116V10.1286C9.87571 9.70876 10.2216 9.36501 10.653 9.36009C11.0865 9.36228 11.4379 9.70438 11.4401 10.127Z" fill="white"/>
</svg>
